<svg width="741" height="926" viewBox="0 0 741 926" fill="none" xmlns="http://www.w3.org/2000/svg">
<path d="M286.939 343.087H263.843C262.924 343.087 262.043 343.534 261.393 344.33C260.744 345.126 260.379 346.205 260.379 347.33V413.808H260.437L290.399 377.11V347.333C290.4 346.208 290.036 345.129 289.386 344.332C288.738 343.536 287.857 343.088 286.939 343.087Z" fill="#263238"/>
<path d="M381.529 312.079C378.017 307.777 373.252 305.36 368.285 305.36C363.317 305.36 358.553 307.777 355.041 312.079L296.242 384.099L290.403 391.253L260.441 427.951L191.771 512.061C210.109 528.485 231.697 538.612 254.301 541.39C276.905 544.17 299.705 539.503 320.342 527.871C322.792 526.487 325.493 525.906 328.182 526.185C330.869 526.466 333.452 527.6 335.674 529.472C346.906 538.934 360.472 543.331 374.056 541.914C387.639 540.498 400.402 533.353 410.166 521.7C412.745 518.632 416.113 516.75 419.695 516.381C423.279 516.012 426.855 517.173 429.817 519.67C447.499 534.586 468.514 542.446 489.982 542.168C511.45 541.889 532.325 533.49 549.745 518.118L381.529 312.079ZM366.899 485.275C366.899 486.137 366.618 486.964 366.122 487.575C365.623 488.183 364.948 488.527 364.244 488.527H342.67C341.966 488.527 341.291 488.183 340.792 487.575C340.294 486.964 340.015 486.137 340.015 485.275V458.85C340.015 457.988 340.294 457.162 340.792 456.551C341.291 455.942 341.966 455.598 342.67 455.598H364.244C364.948 455.598 365.623 455.942 366.122 456.551C366.618 457.162 366.899 457.988 366.899 458.85V485.275ZM366.899 445.255C366.899 446.117 366.618 446.944 366.122 447.555C365.623 448.166 364.948 448.507 364.244 448.507H342.67C341.966 448.507 341.291 448.166 340.792 447.555C340.294 446.944 340.015 446.117 340.015 445.255V418.83C340.015 417.968 340.294 417.141 340.792 416.531C341.291 415.922 341.966 415.578 342.67 415.578H364.244C364.948 415.578 365.623 415.922 366.122 416.531C366.618 417.141 366.899 417.968 366.899 418.83V445.255ZM401.501 485.275C401.501 486.137 401.221 486.964 400.724 487.575C400.225 488.183 399.55 488.527 398.847 488.527H377.272C376.568 488.527 375.893 488.183 375.395 487.575C374.896 486.964 374.617 486.137 374.617 485.275V458.85C374.617 457.988 374.896 457.162 375.395 456.551C375.893 455.942 376.568 455.598 377.272 455.598H398.847C399.55 455.598 400.225 455.942 400.724 456.551C401.221 457.162 401.501 457.988 401.501 458.85V485.275ZM401.501 445.255C401.501 446.117 401.221 446.944 400.724 447.555C400.225 448.166 399.55 448.507 398.847 448.507H377.272C376.568 448.507 375.893 448.166 375.395 447.555C374.896 446.944 374.617 446.117 374.617 445.255V418.83C374.617 417.968 374.896 417.141 375.395 416.531C375.893 415.922 376.568 415.578 377.272 415.578H398.847C399.55 415.578 400.225 415.922 400.724 416.531C401.221 417.141 401.501 417.968 401.501 418.83V445.255Z" fill="#263238"/>
<path d="M143.779 362.384L218.635 234.361C223.543 225.965 230.658 218.989 239.258 214.126C247.864 209.263 257.654 206.689 267.647 206.66L475.886 206.056C485.879 206.027 495.72 208.546 504.428 213.359C513.13 218.172 520.392 225.111 525.477 233.473L600.521 356.93C615.173 345.331 632.864 337.876 651.662 335.382L560.885 186.049C554.612 175.727 545.653 167.165 534.91 161.227C524.165 155.287 512.021 152.178 499.688 152.214L242.708 152.957C230.374 152.993 218.297 156.172 207.678 162.174C197.061 168.173 188.283 176.786 182.228 187.144L91.3375 342.611C110.332 344.415 128.479 351.257 143.779 362.384Z" fill="#00BFA6"/>
<path d="M597.753 530.385L521.772 657.785C516.79 666.14 509.615 673.057 500.972 677.849C492.324 682.64 482.511 685.133 472.519 685.08L264.281 683.965C254.289 683.911 244.47 681.311 235.805 676.426C227.145 671.542 219.945 664.543 214.934 656.139L140.98 532.068C126.226 543.545 108.47 550.853 89.6512 553.193L179.109 703.269C185.291 713.643 194.175 722.279 204.865 728.305C215.557 734.333 227.673 737.542 240.007 737.609L496.984 738.987C509.317 739.053 521.422 735.974 532.094 730.06C542.763 724.148 551.616 715.608 557.763 705.3L650.019 550.589C631.041 548.628 612.955 541.637 597.753 530.385Z" fill="#00BFA6"/>
<path fill-rule="evenodd" clip-rule="evenodd" d="M100.346 373.338L5.74325 445.1L88.9256 529.927L185.623 456.779L100.346 373.338ZM102.976 382.884L176.226 455.117L116.896 436.796L102.976 382.884ZM18.0768 441.409L64.5675 421.361L95.9742 382.381L18.0768 441.409ZM77.2272 467.986L121.39 481.309L89.5631 521.489L77.2272 467.986ZM87.0555 521.217L16.9548 449.804L74.5995 467.194L87.0555 521.217ZM87.8828 524.805L87.5991 525.02L87.938 525.044L87.8828 524.805ZM175.994 456.914L126.865 477.239L117.522 439.132L175.994 456.914ZM112.226 437.521L121.931 477.104L76.1446 463.291L67.0341 423.778L112.226 437.521ZM167.716 465.121L99.4618 516.519L126.242 482.471L167.716 465.121ZM14.8072 444.812L73.551 462.531L64.7269 423.685L14.8072 444.812ZM111.743 435.222L98.6937 382.344L67.3307 421.686L111.743 435.222Z" fill="url(#paint0_linear)"/>
<path fill-rule="evenodd" clip-rule="evenodd" d="M650.091 360.958L555.489 432.72L638.671 517.547L735.368 444.4L650.091 360.958ZM652.722 370.505L725.971 442.738L666.641 424.417L652.722 370.505ZM567.822 429.029L614.313 408.982L645.72 370.001L567.822 429.029ZM626.973 455.607L671.135 468.929L639.308 509.11L626.973 455.607ZM636.801 508.837L566.7 437.425L624.345 454.814L636.801 508.837ZM637.628 512.426L637.344 512.64L637.683 512.664L637.628 512.426ZM725.739 444.534L676.61 464.86L667.267 426.752L725.739 444.534ZM661.972 425.142L671.676 464.724L625.89 450.912L616.779 411.398L661.972 425.142ZM717.461 452.742L649.207 504.139L675.987 470.091L717.461 452.742ZM564.553 432.433L623.296 450.152L614.472 411.306L564.553 432.433ZM661.488 422.842L648.439 369.965L617.076 409.307L661.488 422.842Z" fill="url(#paint1_linear)"/>
<path d="M244.343 891H255.287V863.992L265.399 891H274.231L284.279 864.056V891H295.223V846.072H282.359L269.879 877.176L257.271 846.072H244.343V891ZM303.093 891H314.037V855.288H303.093V891ZM308.597 851.576C312.437 851.576 315.061 848.952 315.061 845.688C315.061 842.36 312.437 839.736 308.597 839.736C304.693 839.736 302.069 842.36 302.069 845.688C302.069 848.952 304.693 851.576 308.597 851.576ZM321.968 891H332.912V855.288H321.968V891ZM327.472 851.576C331.312 851.576 333.936 848.952 333.936 845.688C333.936 842.36 331.312 839.736 327.472 839.736C323.568 839.736 320.944 842.36 320.944 845.688C320.944 848.952 323.568 851.576 327.472 851.576ZM365.483 891H376.363V870.136C376.363 860.536 370.859 854.904 362.603 854.904C357.803 854.904 353.963 857.016 351.787 860.024V855.288H340.843V891H351.787V871.608C351.787 866.744 354.475 864.056 358.635 864.056C362.795 864.056 365.483 866.744 365.483 871.608V891ZM399.712 863.544C403.36 863.544 406.432 865.784 406.432 869.688H392.736C393.376 865.72 396.128 863.544 399.712 863.544ZM416.8 879.16H405.152C404.256 881.08 402.528 882.616 399.456 882.616C395.936 882.616 393.056 880.44 392.672 875.768H417.44C417.568 874.68 417.632 873.592 417.632 872.568C417.632 861.688 410.272 854.776 399.84 854.776C389.216 854.776 381.792 861.816 381.792 873.144C381.792 884.472 389.344 891.512 399.84 891.512C408.736 891.512 415.072 886.136 416.8 879.16ZM423.405 891H434.349V855.288H423.405V891ZM428.909 851.576C432.749 851.576 435.373 848.952 435.373 845.688C435.373 842.36 432.749 839.736 428.909 839.736C425.005 839.736 422.381 842.36 422.381 845.688C422.381 848.952 425.005 851.576 428.909 851.576ZM440.104 873.08C440.104 884.344 447.08 891.512 455.848 891.512C461.096 891.512 464.872 889.144 466.856 885.88V891H477.8V843.64H466.856V860.216C464.68 856.952 460.584 854.776 455.848 854.776C447.08 854.776 440.104 861.816 440.104 873.08ZM466.856 873.144C466.856 878.84 463.208 881.976 459.048 881.976C454.952 881.976 451.24 878.776 451.24 873.08C451.24 867.384 454.952 864.312 459.048 864.312C463.208 864.312 466.856 867.448 466.856 873.144ZM485.718 891H496.662V855.288H485.718V891ZM491.222 851.576C495.062 851.576 497.686 848.952 497.686 845.688C497.686 842.36 495.062 839.736 491.222 839.736C487.318 839.736 484.694 842.36 484.694 845.688C484.694 848.952 487.318 851.576 491.222 851.576Z" fill="#263238"/>
<defs>
<linearGradient id="paint0_linear" x1="-3.8786" y1="429.924" x2="58.6456" y2="542.87" gradientUnits="userSpaceOnUse">
<stop stop-color="#00BFA6"/>
<stop offset="1" stop-color="#0CCBEC"/>
</linearGradient>
<linearGradient id="paint1_linear" x1="545.867" y1="417.545" x2="608.391" y2="530.491" gradientUnits="userSpaceOnUse">
<stop stop-color="#00BFA6"/>
<stop offset="1" stop-color="#0CCBEC"/>
</linearGradient>
</defs>
</svg>
